<svg width="40" height="40" viewBox="0 0 40 40" fill="none" xmlns="http://www.w3.org/2000/svg">
<path d="M20 40C31.0457 40 40 31.0457 40 20C40 8.95431 31.0457 0 20 0C8.95431 0 0 8.95431 0 20C0 31.0457 8.95431 40 20 40Z" fill="#3FBF50"/>
<path fill-rule="evenodd" clip-rule="evenodd" d="M30.6667 20.4465C30.6501 22.1408 30.193 23.8018 29.3397 25.2676C28.4863 26.7334 27.2662 27.9538 25.7982 28.81C24.3302 29.666 22.6643 30.1285 20.9633 30.1522C19.2623 30.176 17.5842 29.7601 16.0927 28.9453L10.6667 30.6665L12.4311 25.4584C11.5092 23.9478 11.024 22.213 11.0292 20.4453C11.0294 17.8517 12.064 15.3642 13.9055 13.5304C15.747 11.6965 18.2446 10.6663 20.8487 10.6665C23.4527 10.6667 25.9501 11.6971 27.7913 13.5313C29.6326 15.3654 30.6669 17.8529 30.6667 20.4465ZM20.8421 12.2872C18.6622 12.2824 16.5693 13.1385 15.0221 14.668C13.4749 16.1974 12.5997 18.2754 12.5882 20.4465C12.5852 22.1676 13.1358 23.8442 14.1593 25.2309L13.1321 28.2629L16.2982 27.2566C17.365 27.9734 18.5859 28.4308 19.8627 28.5916C21.1394 28.7525 22.4363 28.6124 23.6487 28.1826C24.8611 27.753 25.9554 27.0457 26.8433 26.1177C27.731 25.1897 28.3875 24.0672 28.7599 22.8402C29.1323 21.6133 29.2102 20.3164 28.9873 19.054C28.7643 17.7916 28.2469 16.599 27.4765 15.5722C26.7062 14.5454 25.7045 13.7133 24.5521 13.1427C23.3998 12.5721 22.129 12.2791 20.8421 12.2872ZM25.8089 22.6817C25.6775 22.5576 25.5209 22.4632 25.3497 22.4048C25.1079 22.2845 23.9237 21.7092 23.6941 21.6297C23.6522 21.5996 23.6045 21.5785 23.5539 21.5682C23.5033 21.558 23.4511 21.5585 23.4007 21.5698C23.3505 21.5813 23.303 21.6032 23.2619 21.6342C23.2209 21.6654 23.1867 21.7049 23.1622 21.7501C22.993 21.9908 22.5338 22.5216 22.3887 22.6829C22.3591 22.7216 22.3221 22.7538 22.2797 22.7778C22.2371 22.802 22.1902 22.8172 22.1417 22.8226C22.0931 22.8281 22.0439 22.8238 21.9971 22.81C21.9503 22.7961 21.9069 22.7729 21.8693 22.7418C21.1606 22.4641 20.5062 22.0649 19.9357 21.5622C19.4113 21.0806 18.9594 20.5261 18.5942 19.9157C18.5451 19.8373 18.5291 19.7429 18.5495 19.6528C18.5698 19.5628 18.625 19.4842 18.703 19.4342C18.8118 19.3272 18.9446 19.1574 19.0655 19.0178C19.1641 18.8972 19.2455 18.7636 19.3073 18.6206C19.3398 18.5553 19.3546 18.4826 19.3503 18.4098C19.3461 18.337 19.323 18.2665 19.2831 18.2054C19.2227 18.085 18.7393 16.9152 18.5459 16.4373C18.3526 15.9594 18.147 16.0413 18.0021 16.0413C17.857 16.0413 17.6999 16.0196 17.5429 16.0196C17.421 16.022 17.3011 16.0497 17.1909 16.1012C17.0805 16.1525 16.9823 16.2265 16.9025 16.3181C16.6286 16.5706 16.4115 16.878 16.2658 17.2201C16.1199 17.5622 16.0486 17.9313 16.0565 18.3029C16.1347 19.2005 16.4751 20.0557 17.0354 20.763C18.0409 22.3242 19.4695 23.5698 21.1561 24.356C23.5973 25.3068 23.5973 24.989 24.0443 24.9505C24.3783 24.8842 24.6947 24.7493 24.9735 24.5545C25.2523 24.3598 25.4875 24.1093 25.6638 23.819C25.8254 23.463 25.8759 23.0668 25.8089 22.6817Z" fill="white"/>
</svg>
